<?xml version="1.0" encoding="UTF-8" standalone="no"?>
<!-- Created with Inkscape (http://www.inkscape.org/) -->

<svg
   width="10mm"
   height="16mm"
   viewBox="0 0 10 16"
   version="1.1"
   id="svg1"
   inkscape:version="1.3.2 (091e20ef0f, 2023-11-25)"
   sodipodi:docname="song.svg"
   xmlns:inkscape="http://www.inkscape.org/namespaces/inkscape"
   xmlns:sodipodi="http://sodipodi.sourceforge.net/DTD/sodipodi-0.dtd"
   xmlns="http://www.w3.org/2000/svg"
   xmlns:svg="http://www.w3.org/2000/svg">
  <sodipodi:namedview
     id="namedview1"
     pagecolor="#ffffff"
     bordercolor="#000000"
     borderopacity="0.25"
     inkscape:showpageshadow="2"
     inkscape:pageopacity="0.0"
     inkscape:pagecheckerboard="0"
     inkscape:deskcolor="#d1d1d1"
     inkscape:document-units="mm"
     inkscape:zoom="9.9175892"
     inkscape:cx="23.997768"
     inkscape:cy="71.388317"
     inkscape:window-width="1300"
     inkscape:window-height="702"
     inkscape:window-x="0"
     inkscape:window-y="0"
     inkscape:window-maximized="1"
     inkscape:current-layer="layer1" />
  <defs
     id="defs1" />
  <g
     inkscape:label="图层 1"
     inkscape:groupmode="layer"
     id="layer1">
    <path
       style="fill:#ffc600;fill-opacity:1;stroke:#000000;stroke-width:0.133185;paint-order:stroke fill markers"
       d="M 12.976282,60.178221 5.4899655,60.104427 4.6709882,59.702382 C 2.9056588,58.835762 1.7802843,57.745356 0.96518005,56.111725 0.17949645,54.537059 0.21389476,55.725321 0.21389476,30.159161 0.21389476,7.5855725 0.2260505,6.4484748 0.47608768,5.632562 1.2524211,3.0992569 2.9406599,1.3623287 5.4186672,0.54743633 6.3122672,0.25357613 6.6834378,0.23873946 15.756914,0.13418923 20.933167,0.07454522 27.975652,0.01995283 31.40688,0.01287279 L 37.645477,0 v 30.064852 30.064852 l -4.384842,0.09406 c -4.411882,0.09464 -6.550143,0.08984 -20.284353,-0.04554 z"
       id="path3"
       transform="scale(0.26458333)" />
    <path
       d="M 8,5 C 7.5583461,5.9450887 7.0421107,8.008768 6.2145654,9.193589 5.3870201,10.378412 3.6500116,11.382222 3,12 3.6300611,12.662523 5.3396388,13.43741 6.1293898,14.67864 6.9190804,15.919776 7.5881824,18.025075 8,19 8.441654,18.054911 8.9586335,15.991011 9.7860254,14.806409 10.613525,13.621654 12.350014,12.617772 13,12 12.369963,11.337487 10.526826,10.346415 9.8717115,9.32136 9.2165972,8.296305 8.4118176,5.9749253 8,5 Z"
       style="fill:#f0ff0e;stroke:#000000;stroke-width:0;paint-order:stroke fill markers"
       id="path10"
       sodipodi:nodetypes="czcscsczc" />
  </g>
</svg>
